<?xml version="1.0" encoding="utf-8"?>
<!-- Generator: Adobe Illustrator 26.5.0, SVG Export Plug-In . SVG Version: 6.00 Build 0)  -->
<svg version="1.1" id="Layer_1" xmlns="http://www.w3.org/2000/svg" xmlns:xlink="http://www.w3.org/1999/xlink" x="0px" y="0px"
	 viewBox="0 0 432 432" style="enable-background:new 0 0 432 432;" xml:space="preserve">
<style type="text/css">
	.st0{fill:#33BBCF;}
</style>
<g>
	<path class="st0" d="M200.24,120.56v122c0,22.61-5.92,39.74-17.75,51.39c-11.84,11.67-28.43,17.49-49.78,17.49
		c-22.96,0-41.21-6.31-54.73-18.96c-13.53-12.63-20.29-31.06-20.29-55.26h58.46c0,7.66,1.24,13.04,3.74,16.15
		c2.49,3.12,5.88,4.67,10.15,4.67c3.55,0,6.31-1.16,8.28-3.48c1.96-2.3,2.93-6.31,2.93-12.01v-122H200.24z"/>
	<path class="st0" d="M374.31,120.56v46.99h-50.19v142.02h-59.27V167.55H215.2v-46.99H374.31z"/>
</g>
</svg>
