<?xml version="1.0" encoding="utf-8"?>
<!-- Generator: Adobe Illustrator 26.5.0, SVG Export Plug-In . SVG Version: 6.00 Build 0)  -->
<svg version="1.1" id="Layer_1" xmlns="http://www.w3.org/2000/svg" xmlns:xlink="http://www.w3.org/1999/xlink" x="0px" y="0px"
	 viewBox="0 0 32 32" style="enable-background:new 0 0 32 32;" xml:space="preserve">
<style type="text/css">
	.st0{fill:#33BBCF;}
</style>
<g>
	<path class="st0" d="M14.73,8.33v9.8c0,1.82-0.48,3.19-1.43,4.13c-0.95,0.94-2.28,1.41-4,1.41c-1.84,0-3.31-0.51-4.4-1.52
		c-1.09-1.02-1.63-2.5-1.63-4.44h4.7c0,0.62,0.1,1.05,0.3,1.3c0.2,0.25,0.47,0.38,0.82,0.38c0.29,0,0.51-0.09,0.67-0.28
		c0.16-0.19,0.24-0.51,0.24-0.97v-9.8H14.73z"/>
	<path class="st0" d="M28.72,8.33v3.78h-4.03v11.41h-4.76V12.11h-3.99V8.33H28.72z"/>
</g>
<rect x="474.04" y="74.85" style="fill:none;" width="562.21" height="369.19"/>
<text transform="matrix(1 0 0 1 474.0424 296.8516)" style="font-family:'Poppins-Regular'; font-size:300px;">JT</text>
</svg>
